# xmcd
#
# Track frame offsets:
#	150
#	13917
#	28058
#	41528
#	54796
#	67995
#	82611
#	96918
#	109732
#	121845
#	135613
#	149942
#	164850
#	179066
#	192868
#	206911
#	220720
#	234789
#	247548
#	261458
#	275445
#	286265
#	300520
#	314370
#	328288
#
# Disc length: 4544
#
# Revision: 1
# Processed by: cddbd v1.5.1PL0 Copyright (c) Steve Scherf et al.
# Submitted via: audiograbber 1.81.03
# Normalized: r0:DSETVAR1
#
DISCID=7011be19
DTITLE=Various Artist - Douwn at the Crossroads:  The Robert Johnson Connection -Disc 1 of 3
DYEAR=2003
DGENRE=Blues
TTITLE0=Hambone Willie Newbern - Roll and Tumble Blues
TTITLE1=Kokomo Arnold - Milk Cow Blues
TTITLE2=Skip James - Devil Got My Woman
TTITLE3=Leroy Carr - When The Sun Goes Down
TTITLE4=Son House - Walkin' Blues
TTITLE5=Mississippi Sheiks - Sitting On Top Of The World
TTITLE6=Lonnie Johnson - Blue Ghost Blues
TTITLE7=Blind Lemon Jefferson - Dry Southern Blues
TTITLE8=Charley Patton - Revenue Man Blues
TTITLE9=Scrapper Blackwell - Kokomo Blues
TTITLE10=Ramblin' Thomas - No Job Blues
TTITLE11=Big Bill Broonzy - Shelby County Blues
TTITLE12=Ma Rainey - Booze and Blues
TTITLE13=Peetie Wheatstraw - Police Station Blues
TTITLE14=Henry Thomas - Red River Blues
TTITLE15=Kokomo Arnold - Sagefield Woman Blues
TTITLE16=Son House - My Black Mama
TTITLE17=Skip James - 22 - 20 Blues
TTITLE18=Carl Rafferty - Mr Carl's Blues
TTITLE19=Johnny Temple - Lead Pencil Blues
TTITLE20=Blind Lemon Jefferson - Change My Luck Blues
TTITLE21=Mississippi Sheiks - Show Me What You Got
TTITLE22=Lonnie Johnson - Life Saver Blues
TTITLE23=Charley Patton - Tom Rushen Blues
TTITLE24=Casey Bill Weldon - Go Ahead, Buddy
EXTD=Disc 1 title:  Roots, Origins and Influences
EXTT0=
EXTT1=
EXTT2=
EXTT3=
EXTT4=
EXTT5=
EXTT6=
EXTT7=
EXTT8=
EXTT9=
EXTT10=
EXTT11=
EXTT12=
EXTT13=
EXTT14=
EXTT15=
EXTT16=
EXTT17=
EXTT18=
EXTT19=
EXTT20=
EXTT21=
EXTT22=
EXTT23=
EXTT24=
PLAYORDER=
